<?xml version="1.0" encoding="iso-8859-1"?>
<!-- Generator: Adobe Illustrator 19.0.0, SVG Export Plug-In . SVG Version: 6.00 Build 0)  -->
<svg version="1.1" id="Capa_1" xmlns="http://www.w3.org/2000/svg" xmlns:xlink="http://www.w3.org/1999/xlink" x="0px" y="0px"
	 viewBox="0 0 512 512" style="enable-background:new 0 0 512 512;" xml:space="preserve">
<g>
	<g>
		<polygon style="fill:#C9CED1;" points="124.714,378.534 88.597,399.36 88.597,399.429 59.33,382.616 59.261,340.964 
			88.528,357.708 		"/>
		<polygon style="fill:#C9CED1;" points="311.87,470.071 311.87,494.979 283.572,511.308 254.305,494.495 254.236,452.843 
			283.503,469.656 298.102,478.028 		"/>
		<polygon style="fill:#C9CED1;" points="453.362,388.428 453.362,413.267 425.064,429.596 403.477,417.211 425.064,404.757 		"/>
	</g>
	<polygon style="fill:#445C71;" points="467.961,380.679 453.362,389.12 425.064,405.449 403.477,417.903 311.87,470.763 
		298.102,478.72 283.503,470.348 254.236,453.535 124.714,379.226 88.528,358.4 44.662,333.215 44.454,254.824 44.246,176.432 
		44.039,98.041 213.829,0 467.338,145.505 467.754,302.288 	"/>
	<polygon style="fill:#668892;" points="297.894,400.329 44.454,254.824 44.246,176.432 297.686,321.937 	"/>
	<polygon style="fill:#A5B4B4;" points="311.87,470.763 311.87,495.671 283.572,512 283.503,470.348 298.102,478.72 	"/>
	<g>
		
			<ellipse transform="matrix(-0.505 -0.8631 0.8631 -0.505 -147.3959 548.298)" style="fill:#74E1C5;" cx="83.527" cy="316.415" rx="20.611" ry="11.901"/>
		
			<ellipse transform="matrix(-0.505 -0.8631 0.8631 -0.505 -80.0965 430.1414)" style="fill:#74E1C5;" cx="83.295" cy="238.038" rx="20.611" ry="11.901"/>
	</g>
	<g>
		<path style="fill:#445C71;" d="M273.484,367.385c-3.813,0-6.908-3.085-6.919-6.899l-0.088-26.676
			c-0.011-3.821,3.077-6.928,6.899-6.939h0.02c3.813,0,6.908,3.085,6.919,6.899l0.088,26.676c0.005,1.835-0.718,3.597-2.012,4.898
			c-1.294,1.301-3.051,2.035-4.887,2.041H273.484z"/>
		<path style="fill:#445C71;" d="M253.984,356.196c-3.813,0-6.908-3.085-6.919-6.899l-0.088-26.682
			c-0.005-1.835,0.718-3.597,2.012-4.898s3.051-2.035,4.887-2.041h0.02c3.813,0,6.908,3.085,6.919,6.899l0.088,26.682
			c0.011,3.821-3.078,6.928-6.899,6.939H253.984z"/>
		<path style="fill:#445C71;" d="M234.484,345.007c-3.813,0-6.908-3.085-6.919-6.899l-0.088-26.682
			c-0.005-1.835,0.718-3.597,2.012-4.898s3.051-2.035,4.886-2.041h0.02c3.813,0,6.908,3.085,6.919,6.899l0.088,26.682
			c0.005,1.835-0.718,3.597-2.012,4.898c-1.294,1.301-3.051,2.035-4.886,2.041H234.484z"/>
		<path style="fill:#445C71;" d="M214.984,333.818c-3.813,0-6.908-3.085-6.919-6.899l-0.088-26.682
			c-0.011-3.821,3.078-6.928,6.899-6.939h0.02c3.813,0,6.908,3.086,6.919,6.899l0.088,26.682c0.005,1.835-0.718,3.597-2.012,4.898
			s-3.051,2.035-4.886,2.041H214.984z"/>
		<path style="fill:#445C71;" d="M195.484,322.622c-3.813,0-6.908-3.085-6.919-6.899l-0.088-26.676
			c-0.005-1.835,0.718-3.597,2.012-4.898c1.294-1.301,3.051-2.035,4.886-2.041h0.02c3.813,0,6.908,3.085,6.919,6.899l0.088,26.676
			c0.011,3.821-3.078,6.928-6.899,6.939H195.484z"/>
		<path style="fill:#445C71;" d="M175.984,311.432c-3.813,0-6.908-3.085-6.919-6.899l-0.088-26.676
			c-0.011-3.821,3.078-6.928,6.899-6.939h0.02c3.813,0,6.908,3.085,6.919,6.899l0.088,26.676c0.005,1.835-0.718,3.597-2.012,4.898
			c-1.294,1.301-3.051,2.035-4.886,2.041H175.984z"/>
	</g>
	<polygon style="fill:#394F63;" points="467.546,223.896 297.686,321.937 297.479,243.546 44.039,98.041 213.829,0 467.338,145.505 
			"/>
	<polygon style="fill:#4F6F7F;" points="467.754,302.288 297.894,400.329 297.686,321.937 467.546,223.896 	"/>
	<g>
		<polygon style="fill:#394F63;" points="467.961,380.679 453.362,389.12 425.064,405.449 403.477,417.903 311.87,470.763 
			298.102,478.72 297.894,400.329 467.754,302.288 		"/>
		<polygon style="fill:#394F63;" points="467.961,223.184 453.362,231.625 425.064,247.953 403.477,260.407 311.87,313.268 
			298.102,321.225 297.894,242.833 467.754,144.792 		"/>
	</g>
	
		<ellipse transform="matrix(-0.505 -0.8631 0.8631 -0.505 -12.6231 311.973)" style="fill:#74E1C5;" cx="83.147" cy="159.606" rx="20.611" ry="11.901"/>
	<g>
		<path style="fill:#668892;" d="M273.687,445.784c-3.813,0-6.908-3.085-6.919-6.899l-0.088-26.682
			c-0.011-3.821,3.078-6.928,6.899-6.939h0.02c3.813,0,6.908,3.085,6.919,6.899l0.088,26.682c0.011,3.821-3.078,6.928-6.899,6.939
			H273.687z"/>
		<path style="fill:#668892;" d="M254.187,434.595c-3.813,0-6.908-3.085-6.919-6.899l-0.088-26.682
			c-0.011-3.821,3.078-6.928,6.899-6.939h0.02c3.813,0,6.908,3.085,6.919,6.899l0.088,26.682c0.011,3.821-3.077,6.928-6.899,6.939
			H254.187z"/>
		<path style="fill:#668892;" d="M234.687,423.405c-3.813,0-6.908-3.085-6.919-6.899l-0.088-26.682
			c-0.011-3.821,3.077-6.928,6.899-6.939h0.02c3.813,0,6.908,3.085,6.919,6.899l0.088,26.682c0.011,3.821-3.078,6.928-6.899,6.939
			H234.687z"/>
		<path style="fill:#668892;" d="M215.187,412.216c-3.813,0-6.908-3.085-6.919-6.899l-0.088-26.682
			c-0.011-3.821,3.078-6.928,6.899-6.939c3.801,0.036,6.88,3.097,6.939,6.899l0.088,26.682c0.011,3.821-3.077,6.928-6.899,6.939
			H215.187z"/>
		<path style="fill:#668892;" d="M195.693,401.021c-3.813,0-6.908-3.085-6.919-6.899l-0.088-26.676
			c-0.011-3.821,3.078-6.928,6.899-6.939h0.02c3.813,0,6.908,3.085,6.919,6.899l0.088,26.676c0.011,3.821-3.077,6.928-6.899,6.939
			H195.693z"/>
		<path style="fill:#668892;" d="M176.193,389.831c-3.813,0-6.908-3.085-6.919-6.899l-0.088-26.682
			c-0.011-3.821,3.077-6.928,6.899-6.939h0.02c3.813,0,6.908,3.085,6.919,6.899l0.088,26.682c0.011,3.821-3.078,6.928-6.899,6.939
			H176.193z"/>
		<path style="fill:#668892;" d="M273.274,288.986c-3.813,0-6.908-3.085-6.919-6.899l-0.088-26.676
			c-0.011-3.821,3.078-6.928,6.899-6.939h0.02c3.813,0,6.908,3.085,6.919,6.899l0.088,26.676c0.011,3.821-3.078,6.928-6.899,6.939
			L273.274,288.986z"/>
		<path style="fill:#668892;" d="M253.774,277.797c-3.813,0-6.908-3.085-6.919-6.899l-0.088-26.682
			c-0.011-3.821,3.077-6.928,6.899-6.939h0.02c3.813,0,6.908,3.085,6.919,6.899l0.088,26.682c0.011,3.821-3.078,6.928-6.899,6.939
			H253.774z"/>
		<path style="fill:#668892;" d="M234.282,266.608c-3.813,0-6.908-3.085-6.919-6.899l-0.088-26.682
			c-0.011-3.821,3.078-6.928,6.899-6.939h0.02c3.813,0,6.908,3.085,6.919,6.899l0.088,26.682c0.011,3.821-3.078,6.928-6.899,6.939
			H234.282z"/>
		<path style="fill:#668892;" d="M214.781,255.419c-3.813,0-6.908-3.085-6.919-6.899l-0.088-26.682
			c-0.011-3.821,3.078-6.928,6.899-6.939h0.02c3.813,0,6.908,3.085,6.919,6.899l0.088,26.682c0.011,3.821-3.078,6.928-6.899,6.939
			H214.781z"/>
		<path style="fill:#668892;" d="M195.281,244.23c-3.813,0-6.908-3.085-6.919-6.899l-0.088-26.682
			c-0.011-3.821,3.078-6.928,6.899-6.939h0.02c3.813,0,6.908,3.085,6.919,6.899l0.088,26.682c0.011,3.821-3.077,6.928-6.899,6.939
			H195.281z"/>
		<path style="fill:#668892;" d="M175.781,233.034c-3.813,0-6.908-3.085-6.919-6.899l-0.088-26.676
			c-0.011-3.821,3.077-6.928,6.899-6.939h0.02c3.813,0,6.908,3.085,6.919,6.899l0.088,26.676c0.011,3.821-3.078,6.928-6.899,6.939
			H175.781z"/>
	</g>
	<g>
		<polygon style="fill:#A5B4B4;" points="453.362,389.12 453.362,413.959 425.064,430.288 425.064,405.449 		"/>
		<polygon style="fill:#A5B4B4;" points="124.714,379.226 88.597,400.052 88.528,358.4 		"/>
	</g>
</g>
<g>
</g>
<g>
</g>
<g>
</g>
<g>
</g>
<g>
</g>
<g>
</g>
<g>
</g>
<g>
</g>
<g>
</g>
<g>
</g>
<g>
</g>
<g>
</g>
<g>
</g>
<g>
</g>
<g>
</g>
</svg>
